# xmcd
#
# Track frame offsets:
#	150
#	10977
#	24670
#	37319
#	46112
#	55967
#	70522
#	81557
#	94055
#	106624
#
# Disc length: 1605 seconds
#
# Revision: 1
# Processed by: cddbd v1.5.2PL0 Copyright (c) Steve Scherf et al.
# Submitted via: audiograbber 1.83.01
#
DISCID=7b06430a
DTITLE=Jean Shepard - Greatest Gospel Favorites
DYEAR=2006
DGENRE=Gospel
TTITLE0=I'll Fly Away
TTITLE1=It Is No Secret (What God Can Do)
TTITLE2=Where No One Stands Alone
TTITLE3=His Love Takes Good Care Of Me
TTITLE4=Daddy Sang Bass
TTITLE5=Just A Closer Walk With Thee
TTITLE6=Life's Railway To Heaven
TTITLE7=Amazing Grace
TTITLE8=Precious Memories
TTITLE9=Old Rugged Cross
EXTD=
EXTT0=
EXTT1=
EXTT2=
EXTT3=
EXTT4=
EXTT5=
EXTT6=
EXTT7=
EXTT8=
EXTT9=
PLAYORDER=
